# xmcd
#
# Track frame offsets: 
#        150
#        21220
#        37325
#
# Disc length: 776 seconds
#
# Revision: 1
# Processed by: cddbd v1.5.2PL0 Copyright (c) Steve Scherf et al.
# Submitted via: ExactAudioCopy v0.95b4
#
DISCID=22030603
DTITLE=Kitty and Lion - This Is My Generation
DYEAR=1900
DGENRE=JPop
TTITLE0=This Is My Generation (Official Edit)
TTITLE1=This Is My Generation (Radio Edit)
TTITLE2=This Is My Generation (Instrumental)
EXTD=
EXTT0=
EXTT1=
EXTT2=
PLAYORDER=
